<?xml version="1.0" standalone="no"?>
<!DOCTYPE svg PUBLIC "-//W3C//DTD SVG 1.1//EN" "http://www.w3.org/Graphics/SVG/1.1/DTD/svg11.dtd" >
<svg xmlns="http://www.w3.org/2000/svg">
<metadata>Generated by IcoMoon</metadata>
<defs>
<font id="icons" horiz-adv-x="1024">
<font-face units-per-em="1024" ascent="960" descent="-64" />
<missing-glyph horiz-adv-x="1024" />
<glyph unicode="&#x20;" horiz-adv-x="512" d="" />
<glyph unicode="&#xe900;" glyph-name="airplane" horiz-adv-x="1855" d="M927.501 2.697c-153.011 0-274.636 125.548-274.636 274.636 0 160.858 156.935 317.793 278.56 317.793 129.472 0 274.636-164.782 274.636-317.793 0-149.088-125.548-274.636-278.56-274.636zM1268.834 277.333c0 125.548-70.621 247.173-164.782 317.793h270.713c19.617 0 35.31 15.694 35.31 35.31 0 15.694-15.694 31.387-35.31 31.387h-415.877v266.789c0 15.694-11.77 31.387-31.387 31.387-15.694 0-31.387-15.694-31.387-31.387v-266.789h-415.877c-19.617 0-31.387-15.694-31.387-31.387 0-19.617 11.77-35.31 31.387-35.31h278.56c-98.085-70.621-172.629-196.169-172.629-317.793 0-11.77 0-23.54 3.923-35.31h-102.007c15.694-19.617 31.387-43.157 39.234-66.697h74.544c43.157-137.319 172.629-239.326 325.64-239.326s282.483 102.007 325.64 239.326h78.467c7.847 23.54 19.617 47.081 39.234 66.697h-102.007c0 11.77 0 23.54 0 35.31zM782.336 367.571c23.54 58.851 102.007 82.391 145.165 82.391 51.004 0 125.548-23.54 145.165-82.391h-290.33zM927.501 512.736c-90.238 0-215.786-54.928-215.786-180.475 0-15.694 15.694-31.387 31.387-31.387h368.797c15.694 0 31.387 15.694 31.387 31.387 0 121.625-109.854 180.475-215.786 180.475zM1822.029 242.023h-192.245c15.694-19.617 31.387-43.157 39.234-66.697h153.011c19.617 0 31.387 15.694 31.387 31.387 0 19.617-11.77 35.31-31.387 35.31zM1.584 206.713c0-15.694 15.694-31.387 31.387-31.387h153.011c11.77 23.54 23.54 47.081 43.157 66.697h-196.169c-15.694 0-31.387-15.694-31.387-31.387v-3.923zM358.611 57.624c-35.31 0-58.851 27.463-58.851 58.851s23.54 58.851 58.851 58.851c31.387 0 58.851-27.463 58.851-58.851s-27.463-58.851-58.851-58.851zM358.611 242.023c-70.621 0-125.548-58.851-125.548-125.548s54.928-121.625 125.548-121.625c66.697 0 121.625 54.928 121.625 121.625s-54.928 125.548-121.625 125.548zM1500.313 57.624c-35.31 0-58.851 27.463-58.851 58.851s23.54 58.851 58.851 58.851c31.387 0 58.851-27.463 58.851-58.851s-27.463-58.851-58.851-58.851zM1500.313 242.023c-70.621 0-125.548-58.851-125.548-125.548s54.928-121.625 125.548-121.625c66.697 0 121.625 54.928 121.625 121.625s-54.928 125.548-121.625 125.548z" />
<glyph unicode="&#xe901;" glyph-name="alert" horiz-adv-x="765" d="M382.5-9.724c-41.611 0-76.589 28.947-86.238 67.543h-54.879c10.252-68.749 69.955-121.819 141.117-121.819s130.261 53.069 140.514 121.819h-54.879c-9.046-38.596-44.024-67.543-85.635-67.543zM54.434 159.736c0 21.71 0 55.482 0 95.284 41.008 27.138 151.369 118.803 151.369 315.402 0 5.428-3.015 132.674 104.933 168.254 7.237 2.412 33.168 9.649 71.764 10.252 38.596-0.603 64.528-7.84 71.764-10.252 107.948-35.581 104.933-162.827 104.33-169.461 0-195.392 110.963-287.058 151.972-314.196 0-39.802 0-73.574 0-95.284h-656.132zM382.5 905.724c27.741 0 50.657-22.313 50.657-50.657 0-27.741-22.916-50.657-50.657-50.657s-50.657 22.916-50.657 50.657c0 28.344 22.916 50.657 50.657 50.657zM764.239 270.097c0 10.252-5.428 19.298-14.473 24.122-1.206 0.603-136.895 72.971-136.895 274.393 2.412 59.703-24.122 182.728-141.72 221.324-1.809 0.603-3.618 1.206-6.031 1.809 13.87 17.489 22.313 39.802 22.313 63.322 0 57.894-47.039 104.933-104.933 104.933s-104.933-47.039-104.933-104.933c0-23.519 8.443-45.833 21.71-63.322-1.809-0.603-3.618-1.206-5.428-1.809-117.597-38.596-144.132-161.621-141.72-220.721 0-200.217-131.468-272.584-136.895-274.996-9.046-4.824-14.473-13.87-14.473-24.122 0-77.795-0.603-137.498-0.603-137.498 0-7.237 3.015-13.87 7.84-19.298 4.824-4.824 12.061-7.84 19.298-7.84h710.408c7.237 0 13.87 3.015 19.298 7.84 4.824 5.428 7.84 12.061 7.84 19.298 0 0-0.603 59.703-0.603 137.498z" />
<glyph unicode="&#xe902;" glyph-name="bag" horiz-adv-x="1141" d="M424.827 865.741c0 17.138 12.853 29.992 25.707 29.992h239.933c17.138 0 29.992-12.853 29.992-29.992v-51.414h64.268v51.414c0 51.414-42.845 94.259-94.259 94.259h-239.933c-51.414 0-89.975-42.845-89.975-94.259v-51.414h64.268v51.414zM1076.074 30.259c0-17.138-12.853-29.992-25.707-29.992h-955.448c-17.138 0-29.992 12.853-29.992 29.992v278.494h-64.268v-278.494c0-51.414 42.845-94.259 94.259-94.259h955.448c51.414 0 89.975 42.845 89.975 94.259v278.494h-64.268v-278.494zM673.329 450.142v119.966h-205.657v-119.966h-402.745v197.088c0 17.138 12.853 29.992 29.992 29.992h955.448c12.853 0 25.707-12.853 25.707-29.992v-197.088h-402.745zM609.062 334.46h-77.121v167.096h77.121v-167.096zM1050.367 741.49h-955.448c-51.414 0-94.259-42.845-94.259-94.259v-261.356h467.013v-115.682h205.657v115.682h467.013v261.356c0 51.414-38.561 94.259-89.975 94.259z" />
<glyph unicode="&#xe903;" glyph-name="book" horiz-adv-x="1063" d="M998.398 647.677h-65.275v135.536h65.275v-135.536zM1030.581 847.583h-97.459v19.945c0 50.77-41.704 92.472-92.472 92.472h-670.428c-50.77 0-92.019-41.704-92.019-92.472v-137.803h-45.783c-17.678 0-32.184-14.505-32.184-32.638 0-17.678 14.505-32.184 32.184-32.184h170.44c18.132 0 32.638 14.505 32.638 32.184 0 18.132-14.505 32.638-32.638 32.638h-60.289v137.803c0 14.958 12.693 27.651 27.651 27.651h670.428c14.958 0 27.651-12.693 27.651-27.651v-839.055c0-14.958-12.693-27.651-27.651-27.651h-670.428c-14.958 0-27.651 12.693-27.651 27.651v77.967h-64.368v-77.967c0-50.77 41.25-92.472 92.019-92.472h670.428c50.77 0 92.472 41.704 92.472 92.472v26.744h97.459c17.678 0 32.184 14.505 32.184 32.638v168.174h-64.368v-135.99h-65.275v201.264h97.459c6.799 0 12.693 1.813 18.132 5.439 8.613 5.892 14.053 15.865 14.053 26.744v161.374h-64.368v-128.737h-65.275v193.558h97.459c8.613 0 16.772 3.627 22.665 9.519s9.519 14.053 9.519 23.119v203.078c0 17.678-14.505 32.184-32.184 32.184zM78.202 591.015v-103.805h-45.783c-17.678 0-32.184-14.505-32.184-32.184 0-18.132 14.505-32.638 32.184-32.638h170.44c18.132 0 32.638 14.505 32.638 32.638 0 17.678-14.505 32.184-32.638 32.184h-60.289v103.805h-64.368zM235.497 212.511c0 17.678-14.505 32.184-32.638 32.184h-60.289v103.805h-64.368v-103.805h-45.783c-17.678 0-32.184-14.505-32.184-32.184 0-18.132 14.505-32.638 32.184-32.638h170.44c18.132 0 32.638 14.505 32.638 32.638zM570.031 154.942c3.627-0.453 8.613-0.453 14.505-0.453 15.865 0 29.464 1.813 39.89 5.892 23.572 8.613 48.050 19.038 58.929 25.838l-54.849 99.273c-1.36 2.72-1.36 1.813-1.813 3.627-0.453 0.453-1.813 0.907-4.080 0.907l-67.995-1.813c-12.693-0.453-24.931 6.799-30.371 19.038-0.907 2.72-31.731 71.168-44.876 119.218-17.225 47.596-31.278 119.671-31.731 122.39-2.72 13.146 2.72 25.838 13.599 33.091l56.209 37.624 3.173 2.267-0.453 4.533-12.693 112.871c-15.865-0.907-44.876-7.706-62.102-12.239-19.038-4.986-38.53-19.038-48.503-27.198-20.852-68.901-11.786-169.533 25.838-285.124 0.907-2.267 1.813-4.533 2.267-5.892 0.453-1.813 1.36-4.986 2.72-9.066 45.783-145.055 101.538-213.050 142.335-244.781zM584.537 89.668v0c-17.678 0-30.371 1.813-31.731 2.267-4.986 0.907-9.519 2.72-13.599 5.439-72.075 51.223-130.097 146.415-173.16 283.312-1.36 3.173-1.813 5.892-2.267 7.253l-0.907 1.813-1.36 4.986c-44.423 135.083-52.583 250.22-23.119 334.080 1.813 4.533 4.533 8.613 7.706 12.239 4.080 3.627 39.437 37.17 82.5 48.050 4.533 1.36 53.489 14.958 82.5 14.958 9.066 0 16.318-0.907 22.665-3.627 14.958-4.986 33.091-20.399 37.17-48.956l13.146-116.044c3.173-17.225 0.453-48.956-30.824-69.808l-38.077-25.384c5.439-24.025 14.958-64.821 25.384-92.926l1.36-4.080v-0.907c8.159-28.558 23.572-66.635 33.091-88.847l47.596 0.907c36.264 0 56.209-23.119 63.008-38.984l56.209-101.086c13.146-26.291 7.706-49.41-1.813-62.556-4.533-7.706-20.399-26.291-92.926-52.13-17.225-6.346-38.53-9.973-62.556-9.973z" />
<glyph unicode="&#xe904;" glyph-name="building" horiz-adv-x="1029" d="M-0.007 409.56v-473.109h53.225v473.109c0 11.828 11.828 23.656 23.656 23.656h153.761v53.225h-153.761c-41.397 0-76.88-35.483-76.88-76.88zM952.126 362.249h-153.761v-53.225h153.761c11.828 0 23.656-11.828 23.656-23.656v-348.918h53.225v348.918c0 41.397-35.483 76.88-76.88 76.88zM662.346 864.928h-130.105v65.053c0 17.742-11.828 29.57-29.57 29.57-11.828 0-23.656-11.828-23.656-29.57v-65.053h-112.363c-41.397 0-76.88-35.483-76.88-76.88v-851.596h53.225v851.596c0 11.828 11.828 23.656 23.656 23.656h295.693c11.828 0 23.656-11.828 23.656-23.656v-851.596h53.225v851.596c0 41.397-35.483 76.88-76.88 76.88zM402.137 681.598h224.727v59.139h-224.727zM402.137 557.407h224.727v53.225h-224.727zM402.137 433.216h224.727v53.225h-224.727zM402.137 184.833h224.727v53.225h-224.727zM402.137 60.642h224.727v53.225h-224.727zM402.137 309.024h224.727v53.225h-224.727zM402.137-63.549h224.727v53.225h-224.727zM112.357 184.833h118.277v53.225h-118.277zM112.357 60.642h118.277v53.225h-118.277zM112.357 309.024h118.277v53.225h-118.277zM112.357-63.549h118.277v53.225h-118.277zM798.365 184.833h112.363v53.225h-112.363zM798.365 60.642h112.363v53.225h-112.363zM798.365-63.549h112.363v53.225h-112.363z" />
<glyph unicode="&#xe905;" glyph-name="cart" horiz-adv-x="1255" d="M374.388 379.45c-42.186 0-73.824 31.639-73.824 73.824 0 36.912 31.639 73.824 73.824 73.824 36.912 0 68.551-36.912 68.551-73.824 0-42.186-31.639-73.824-68.551-73.824zM374.388 595.649c-79.097 0-142.375-63.278-142.375-142.375s63.278-142.375 142.375-142.375c79.097 0 142.375 63.278 142.375 142.375s-63.278 142.375-142.375 142.375zM1049.352 458.547h-353.301c-15.82 0-31.639 15.82-31.639 36.912 0 15.82 15.82 31.639 31.639 31.639h353.301c21.093 0 36.912-15.82 36.912-31.639 0-21.093-15.82-36.912-36.912-36.912zM1049.352 310.899h-353.301c-15.82 0-31.639 15.82-31.639 36.912 0 15.82 15.82 31.639 31.639 31.639h353.301c21.093 0 36.912-15.82 36.912-31.639 0-21.093-15.82-36.912-36.912-36.912zM1049.352 163.25h-353.301c-15.82 0-31.639 15.82-31.639 36.912 0 15.82 15.82 31.639 31.639 31.639h353.301c21.093 0 36.912-15.82 36.912-31.639 0-21.093-15.82-36.912-36.912-36.912zM685.504 701.112h-89.643v189.834h89.643v-189.834zM522.036 959.497v-326.936h232.019v326.936h-232.019zM516.763 5.056v0h-284.751v110.736c0 36.912 31.639 68.551 68.551 68.551h147.648c36.912 0 68.551-31.639 68.551-68.551v-110.736zM1154.815 774.937h-332.209v-68.551h332.209c15.82 0 31.639-10.546 31.639-26.366v-643.325c0-15.82-15.82-31.639-31.639-31.639h-564.228v110.736c0 73.824-63.278 137.102-142.375 137.102h-147.648c-79.097 0-137.102-63.278-137.102-137.102v-110.736h-63.278c-15.82 0-31.639 15.82-31.639 31.639v643.325c0 15.82 15.82 26.366 31.639 26.366h353.301v68.551h-353.301c-58.005 0-100.19-42.186-100.19-94.917v-643.325c0-58.005 42.186-100.19 100.19-100.19h1054.631c58.005 0 100.19 42.186 100.19 100.19v643.325c0 52.732-42.186 94.917-100.19 94.917z" />
<glyph unicode="&#xe906;" glyph-name="cash" horiz-adv-x="1612" d="M1610.029 960h-1441.185v-83.437h1357.747v-766.103h83.437zM1352.133 27.024h-1266.725v682.666h1266.725v-682.666zM1.971 793.126v-857.126h1441.185v857.126h-1441.185zM677.051 504.89c-60.681-7.586-98.608-30.341-98.608-45.511s37.926-45.511 98.608-53.097h7.586v106.192l-7.586-7.586zM760.489 224.238h7.586c53.097 7.586 91.022 37.926 91.022 53.097s-37.926 37.926-91.022 45.511l-7.586 7.586v-106.192zM684.637 87.705v60.681h-7.586c-83.437 15.17-144.119 53.097-166.874 98.608l75.852 15.17c7.586-15.17 45.511-30.341 91.022-37.926h7.586v113.778h-7.586c-60.681 7.586-98.608 22.756-113.778 37.926h-7.586c-30.341 22.756-53.097 53.097-53.097 83.437 0 60.681 75.852 113.778 174.46 121.363h7.586v60.681h75.852v-60.681c83.437-7.586 136.533-37.926 159.289-83.437l-68.267-22.756c-7.586 7.586-45.511 22.756-83.437 30.341h-7.586v-113.778c53.097-7.586 91.022-22.756 113.778-30.341 15.17-7.586 22.756-15.17 30.341-22.756 0 0 0 0 7.586 0 15.17-22.756 22.756-37.926 22.756-60.681 0-60.681-68.267-113.778-174.46-121.363v-68.267h-75.852z" />
<glyph unicode="&#xe907;" glyph-name="cup" horiz-adv-x="1019" d="M415.311 190.135c45.505 73.947 56.882 144.101 58.778 182.022h72.050c1.896-37.921 11.377-108.076 58.778-182.022h-189.607zM724.371-7.056h-430.407v140.309h430.407v-140.309zM621.983 484.026c-32.233-32.233-68.259-49.298-111.867-53.090-43.61 3.793-79.634 20.856-111.867 53.090-117.556 117.556-123.244 384.901-123.244 419.030h470.224v-3.793c0-1.896 0-290.098-123.244-415.239zM1014.469 812.045c-5.688 7.584-15.168 11.377-24.649 11.377h-132.725l-5.688-56.882h98.595c-30.337-73.947-109.972-231.32-267.346-301.474 121.348 147.893 119.452 422.823 119.452 434.199v32.233c0 15.168-13.272 28.441-28.441 28.441h-527.106c-15.168 0-26.545-11.377-28.441-24.649h-1.896v-28.441c0-13.272 0-293.89 123.244-441.783-159.27 70.154-240.801 227.528-269.241 301.474h98.595l-7.584 56.882h-132.725c-9.48 0-17.065-3.793-22.753-11.377s-7.584-17.065-3.793-26.545c0-3.793 108.076-346.98 415.239-403.862-1.896-32.233-11.377-111.867-73.947-191.503h-72.050c-18.961 0-34.129-18.961-34.129-43.61v-166.854c0-24.649 15.168-43.61 34.129-43.61h475.912c18.961 0 34.129 18.961 34.129 43.61v166.854c0 24.649-15.168 43.61-34.129 43.61h-72.050c-62.57 79.634-72.050 159.27-72.050 191.503 307.163 56.882 413.343 400.070 415.239 403.862 1.896 9.48 0 18.961-3.793 26.545zM402.039 34.657h216.152c15.168 0 28.441 13.272 28.441 30.337 0 15.168-13.272 28.441-28.441 28.441h-216.152c-15.168 0-28.441-13.272-28.441-28.441 0-17.065 13.272-30.337 28.441-30.337z" />
<glyph unicode="&#xe908;" glyph-name="dash-board" horiz-adv-x="1138" d="M661.627 127.771v79.396h-58.224v-79.396l-158.792-132.327c-15.88-10.586-15.88-31.758-5.293-42.345 5.293-10.586 15.88-10.586 21.172-10.586 10.586 0 15.88 0 21.172 5.293l121.741 100.568v-79.396c0-15.88 10.586-31.758 26.465-31.758 21.172 0 31.758 15.88 31.758 31.758v79.396l121.741-100.568c5.293-5.293 15.88-5.293 21.172-5.293s15.88 0 21.172 10.586c10.586 10.586 10.586 31.758-5.293 42.345l-158.792 132.327zM1106.244 932.316h-751.616c10.586-15.88 21.172-37.051 26.465-58.224h640.461v-497.548c0-31.758-26.465-58.224-58.224-58.224h-561.065v201.137c0 21.172-5.293 47.638-21.172 68.81-5.293 10.586-15.88 21.172-31.758 26.465-15.88 15.88-42.345 21.172-63.516 21.172h-164.085c-26.465 0-52.931-5.293-68.81-21.172-10.586-5.293-21.172-15.88-31.758-26.465-15.88-21.172-21.172-47.638-21.172-68.81v-217.015c0-26.465 5.293-47.638 21.172-68.81 10.586-10.586 21.172-21.172 31.758-31.758 10.586-5.293 21.172-10.586 31.758-15.88v-248.774h58.224v301.704h-21.172c-10.586 0-21.172 5.293-31.758 10.586-15.88 10.586-31.758 26.465-31.758 52.931v217.015c0 31.758 26.465 58.224 63.516 58.224h164.085c31.758 0 58.224-26.465 58.224-58.224v-217.015c0-15.88-5.293-31.758-21.172-47.638 0 0-5.293-5.293-10.586-5.293-10.586-5.293-21.172-10.586-26.465-10.586h-26.465v-301.704h58.224v248.774c15.88 5.293 26.465 10.586 31.758 15.88 15.88 10.586 26.465 21.172 31.758 31.758 5.293 5.293 10.586 15.88 15.88 21.172h566.359c63.516 0 116.447 58.224 116.447 121.741v497.548h26.465c15.88 0 31.758 10.586 31.758 31.758 0 15.88-15.88 26.465-31.758 26.465zM201.13 900.558c42.345 0 79.396-37.051 79.396-79.396s-37.051-74.103-79.396-74.103c-42.345 0-74.103 31.758-74.103 74.103s31.758 79.396 74.103 79.396zM201.13 688.835c74.103 0 137.619 58.224 137.619 132.327 0 79.396-63.516 137.619-137.619 137.619s-137.619-58.224-137.619-137.619c0-74.103 63.516-132.327 137.619-132.327z" />
<glyph unicode="&#xe909;" glyph-name="doc" horiz-adv-x="830" d="M720.904 905.56c31.109 0 54.441-25.924 54.441-54.441v-681.804h54.441v681.804c0 59.625-49.256 108.881-108.881 108.881h-492.558v-54.441h492.558zM658.686 13.771c0-12.962-10.37-23.332-23.332-23.332h-557.368c-12.962 0-23.332 10.37-23.332 23.332v614.401l171.099 145.175v-160.729h-85.549v-54.441h142.582v230.724h352.568c12.962 0 23.332-10.37 23.332-23.332v-751.799zM635.354 843.343h-401.824c-5.185 0-12.962-2.592-15.554-7.777l-207.392-173.691c-5.185-5.185-10.37-12.962-10.37-18.147v0-629.955c0-44.071 36.294-77.772 77.772-77.772h557.368c44.071 0 77.772 33.701 77.772 77.772v751.799c0 44.071-33.701 77.772-77.772 77.772zM552.397 371.524h-388.862c-12.962 0-25.924 12.962-25.924 28.516s12.962 28.516 25.924 28.516h388.862c12.962 0 25.924-12.962 25.924-28.516s-12.962-28.516-25.924-28.516zM552.397 122.652h-388.862c-12.962 0-25.924 12.962-25.924 28.516s12.962 25.924 25.924 25.924h388.862c12.962 0 25.924-10.37 25.924-25.924s-12.962-28.516-25.924-28.516zM552.397 247.089h-388.862c-12.962 0-25.924 12.962-25.924 28.516s12.962 25.924 25.924 25.924h388.862c12.962 0 25.924-10.37 25.924-25.924s-12.962-28.516-25.924-28.516z" />
<glyph unicode="&#xe90a;" glyph-name="eye" horiz-adv-x="1740" d="M866.767 959.104c35.576 0 71.152-3.234 103.494-12.937 236.097-38.81 478.663-187.584 730.93-456.023l38.81-45.279-38.81-42.045c-297.547-320.187-588.625-472.194-866.767-465.726-281.376 3.234-549.815 161.71-802.082 468.96l-32.342 38.81 32.342 42.045c249.033 300.782 514.239 462.492 792.38 468.96 12.937 3.234 29.108 3.234 42.045 3.234zM1254.871 703.601c22.639-51.747 35.576-106.729 35.576-164.944 0-232.862-190.818-423.681-423.681-423.681s-420.447 190.818-420.447 423.681c0 67.918 16.171 135.836 45.279 194.052-109.963-64.684-219.926-161.71-329.889-287.845 219.926-249.033 443.086-381.637 672.714-384.871 232.862-3.234 475.428 122.9 734.164 384.871-106.729 109.963-210.223 197.286-313.718 258.736zM743.866 784.457c87.323 0 161.71-71.152 161.71-161.71s-74.387-161.71-161.71-161.71c-90.558 0-164.944 71.152-164.944 161.71s74.387 161.71 164.944 161.71z" />
<glyph unicode="&#xe90b;" glyph-name="gift" horiz-adv-x="937" d="M728.992 807.298c-26.947-35.93-107.789-53.895-206.596-53.895 89.825 134.737 143.719 152.702 161.684 152.702 35.93 0 53.895-53.895 53.895-53.895 0-17.965 0-35.93-8.982-44.912zM208.010 807.298c-8.982 8.982-8.982 26.947 0 44.912 0 0 8.982 53.895 44.912 53.895 17.965 0 71.86-17.965 161.684-152.702-98.807 0-179.649 17.965-206.596 53.895zM791.869 861.193c-8.982 35.93-44.912 98.807-107.789 98.807s-134.737-62.877-215.579-188.632c-80.842 125.754-152.702 188.632-215.579 188.632s-98.807-62.877-107.789-98.807c-8.982-35.93 0-62.877 17.965-89.825 53.895-71.86 197.614-80.842 278.456-80.842 8.982 0 26.947 0 26.947 0 8.982 0 17.965 0 26.947 0 80.842 0 224.561 8.982 278.456 80.842 17.965 26.947 26.947 53.895 17.965 89.825zM881.694 456.982h-323.368v125.754h323.368v-125.754zM818.817-1.123h-260.491v395.228h260.491v-395.228zM118.185 394.105h260.491v-395.228h-260.491v395.228zM55.308 582.737h323.368v-125.754h-323.368v125.754zM504.431-1.123h-71.86v583.86h71.86v-583.86zM908.641 645.614h-880.281c-17.965 0-26.947-17.965-26.947-35.93v-179.649c0-17.965 8.982-35.93 26.947-35.93h35.93v-431.158c0-8.982 8.982-26.947 26.947-26.947h754.526c17.965 0 35.93 17.965 35.93 26.947v431.158h26.947c17.965 0 26.947 17.965 26.947 35.93v179.649c0 17.965-8.982 35.93-26.947 35.93z" />
<glyph unicode="&#xe90c;" glyph-name="gps" horiz-adv-x="824" d="M497.909 96.306c22.901-6.543 42.53-16.358 58.888-22.901-29.444-29.444-68.703-52.345-107.962-65.431 19.629 29.444 35.987 58.888 49.073 88.332zM213.283 315.501c0 35.987 6.543 71.974 16.358 104.69 32.716-9.815 65.431-13.086 94.875-16.358v-88.332h-111.233zM380.132 119.207c22.901 0 45.802-3.272 68.703-6.543-19.629-35.987-42.53-71.974-68.703-111.233v117.776zM206.739 96.306c13.086-29.444 29.444-58.888 49.073-91.604-39.259 16.358-75.246 35.987-107.962 65.431 19.629 9.815 39.259 19.629 58.888 26.173zM160.937 263.156c3.272-39.259 9.815-78.518 26.173-117.776-26.173-9.815-49.073-19.629-75.246-32.716-32.716 42.53-52.345 94.875-55.617 150.492h104.69zM324.516 171.552c-26.173 0-55.617-6.543-88.332-13.086-13.086 35.987-19.629 71.974-22.901 104.69h111.233v-91.604zM324.516 1.43c-26.173 35.987-49.073 71.974-65.431 107.962 22.901 6.543 45.802 9.815 65.431 9.815v-117.776zM180.567 433.277c-9.815-35.987-19.629-75.246-19.629-117.776h-104.69c3.272 55.617 22.901 104.69 55.617 150.492 22.901-13.086 45.802-22.901 68.703-32.716zM200.196 482.35c-16.358 6.543-35.987 13.086-52.345 22.901 29.444 26.173 62.16 49.073 101.419 62.16-16.358-22.901-32.716-52.345-49.073-85.061zM324.516 456.178c-22.901 3.272-49.073 6.543-75.246 13.086 26.173 52.345 55.617 91.604 75.246 114.505v-127.591zM491.366 263.156c-3.272-32.716-9.815-68.703-22.901-104.69-29.444 6.543-58.888 13.086-88.332 13.086v91.604h111.233zM517.538 145.379c16.358 39.259 22.901 78.518 26.173 117.776h104.69c-3.272-55.617-26.173-107.962-55.617-150.492-22.901 9.815-45.802 22.901-75.246 32.716zM605.87 443.092c22.901-39.259 39.259-81.789 42.53-127.591h-104.69c0 26.173-3.272 52.345-9.815 78.518-19.629-13.086-32.716-22.901-45.802-29.444 3.272-16.358 3.272-32.716 3.272-49.073h-111.233v323.885h-3.272c-9.815 0-16.358 0-26.173 0-193.022 0-350.058-157.035-350.058-350.058 0-196.294 157.035-353.329 350.058-353.329 196.294 0 353.329 157.035 353.329 353.329 0 65.431-19.629 130.863-52.345 183.208-16.358-9.815-29.444-19.629-45.802-29.444zM753.091 698.274c-26.173-55.617-183.208-166.85-278.083-225.738-3.272 107.962-3.272 300.984 22.901 356.601 26.173 49.073 75.246 78.518 127.591 78.518 22.901 0 45.802-6.543 68.703-16.358 68.703-35.987 98.147-124.319 58.888-193.022zM717.104 937.098c-29.444 16.358-58.888 22.901-91.604 22.901-71.974 0-140.677-39.259-173.393-107.962-45.802-85.061-29.444-392.588-26.173-428.575 0-9.815 6.543-16.358 13.086-22.901 3.272 0 9.815-3.272 13.086-3.272s9.815 3.272 13.086 6.543c29.444 16.358 291.169 179.936 336.971 268.268 49.073 98.147 9.815 215.923-85.061 264.997zM668.030 740.804c-9.815-13.086-22.901-22.901-42.53-22.901-6.543 0-13.086 0-19.629 3.272-9.815 6.543-19.629 16.358-22.901 29.444-3.272 9.815-3.272 22.901 3.272 32.716 6.543 16.358 22.901 26.173 39.259 26.173 9.815 0 16.358-3.272 22.901-6.543 22.901-9.815 29.444-39.259 19.629-62.16zM671.302 852.037c-13.086 6.543-29.444 9.815-45.802 9.815-35.987 0-68.703-19.629-88.332-52.345-9.815-22.901-13.086-52.345-6.543-75.246 9.815-26.173 26.173-45.802 49.073-58.888 16.358-6.543 32.716-9.815 45.802-9.815 39.259 0 71.974 19.629 88.332 52.345 26.173 49.073 6.543 107.962-42.53 134.134z" />
<glyph unicode="&#xe90d;" glyph-name="hand-box" horiz-adv-x="1011" d="M238.64 66.52l-181.042 239.821v59.956h1.176l-2.351 337.395c1.176 19.985 14.107 35.268 29.39 35.268v0c16.458 0 25.864-17.634 25.864-35.268l1.176-198.676c15.283 5.878 35.268 8.23 57.604 5.878l-1.176 192.797c0 51.726-36.443 92.872-83.467 92.872v0c-47.023 0-85.818-41.146-85.818-91.696l1.176-400.877c0-12.931 3.527-22.337 9.404-29.39v0l183.392-243.348h-1.176l1.176-1.176c3.527-4.703 12.931-29.39 12.931-91.696h57.604c0 85.818-17.634 117.559-25.864 128.14zM484.339 126.476v4.703c-14.107 89.345-89.345 137.544-99.925 143.423-27.038 19.985-65.833 55.253-77.59 67.009v0l-81.116 89.345c-18.81 19.985-44.672 31.741-71.711 31.741-19.985 0-39.97-8.23-55.253-21.161-35.268-32.916-34.092-89.345 0-126.964l111.682-121.086 41.146 38.795-110.506 119.91c-14.107 15.283-15.283 36.443-3.527 47.023 5.878 4.703 11.756 5.878 16.458 5.878 10.58 0 21.161-4.703 29.39-12.931l72.887-79.94 7.054-8.23c2.351-2.351 52.902-51.726 89.345-76.414l2.351-1.176c1.176-1.176 61.13-36.443 71.711-102.276l1.176-188.095h56.429v190.446zM772.36 66.52l181.042 239.821v59.956l1.176 337.395c0 19.985-14.107 35.268-29.39 35.268v0c-16.458 0-25.864-17.634-25.864-35.268l-1.176-198.676c-15.283 5.878-35.268 8.23-57.604 5.878l1.176 192.797c0 51.726 36.443 92.872 83.467 92.872v0c47.023 0 85.818-41.146 85.818-91.696l-1.176-400.877c0-12.931-3.527-22.337-9.404-29.39v0l-183.392-243.348h1.176l-1.176-1.176c-3.527-4.703-12.931-29.39-12.931-91.696h-57.604c0 85.818 17.634 117.559 25.864 128.14zM526.661 126.476l1.176 4.703c12.931 89.345 88.17 137.544 98.749 143.423 28.214 19.985 65.833 55.253 77.59 67.009v0l81.116 89.345c18.81 19.985 44.672 31.741 71.711 31.741 21.161 0 39.97-8.23 55.253-21.161 35.268-32.916 35.268-89.345 0-126.964l-111.682-121.086-41.146 38.795 110.506 119.91c14.107 15.283 15.283 36.443 3.527 47.023-5.878 4.703-11.756 5.878-16.458 5.878-10.58 0-21.161-4.703-29.39-12.931l-72.887-79.94-7.054-8.23c-2.351-2.351-52.902-51.726-89.345-76.414l-2.351-1.176c0-1.176-61.13-36.443-71.711-102.276v-188.095h-57.604v190.446zM531.363 462.695v205.729l179.866 99.925v-203.377l-179.866-102.276zM298.596 770.7l176.339-98.749v-208.080l-176.339 101.101v205.729zM679.488 815.373l-172.812-96.398-177.515 99.925 173.988 78.764 176.339-82.291zM504.324 959.97l-263.333-118.735v-309.181l263.333-150.476 264.509 150.476v304.478l-264.509 123.437z" />
<glyph unicode="&#xe90e;" glyph-name="handshake" horiz-adv-x="1573" d="M96.729 380.946c0-27.029-20.792-48.861-47.821-48.861s-48.861 21.831-48.861 48.861c0 25.99 21.831 47.821 48.861 47.821s47.821-21.831 47.821-47.821zM939.84 79.464c-20.792-9.357-37.425-11.435-55.099 9.357l-28.069 48.861-74.851 132.029c-10.396 18.713-33.267 24.95-50.94 14.554-18.713-10.396-24.95-33.267-14.554-50.94l73.811-130.989 1.039-3.119h1.039l18.713-31.188 13.515-23.911 2.079-4.159c3.119-3.119 6.237-6.237 9.357-9.357 24.95-25.99 53.019-33.267 76.93-33.267 27.029 0 50.94 9.357 63.415 14.554 2.079 1.039 4.159 2.079 5.198 2.079l-14.554 22.871-27.029 42.623zM754.793 34.761c-2.079-1.039-21.831-10.396-43.663 16.633v0l-63.415 110.197c-10.396 17.673-33.267 23.911-50.94 13.515-18.713-10.396-24.95-33.267-14.554-50.94l59.257-103.959 2.079-3.119 3.119-6.237c30.148-40.544 65.495-54.059 95.643-54.059 19.752 0 37.425 6.237 48.861 12.475l-32.227 57.178-4.159 8.317zM1524.092 364.313c-27.029 0-48.861-21.831-48.861-47.821 0-27.029 21.831-48.861 48.861-48.861s48.861 21.831 48.861 48.861c0 25.99-21.831 47.821-48.861 47.821zM570.785 11.89c-18.713 0-42.623 7.277-60.297 37.425l-167.375 284.849h-83.167v461.58h242.225l60.297 75.891h-302.522v88.365h-257.819v-75.891h182.969v-648.707h-184.008v-74.851h258.859v97.722h40.544l144.503-247.423c34.307-58.217 85.247-74.851 127.87-74.851 14.554 0 28.069 2.079 39.505 5.198l-41.584 70.693zM1191.422 241.641l-234.948 448.065v1.039c-20.792 2.079-148.662 12.475-149.701 12.475l-17.673 2.079-158.018-160.097c-25.99-19.752-49.901-27.029-70.693-21.831-19.752 4.159-37.425 20.792-48.861 35.346l173.612 225.592c49.901 62.375 96.682 66.534 97.722 66.534h274.453l254.701-111.237v-497.965h-120.593zM1387.905 821.734h182.969v75.891h-258.859v-75.891l-235.988 103.959v1.039l-294.205-1.039c-8.317 0-84.207-3.119-156.979-94.603l-202.721-266.136 9.357-20.792c4.159-7.277 39.505-77.969 111.237-94.603 10.396-2.079 20.792-4.159 31.188-4.159 34.307 0 69.653 13.515 104.999 40.544l139.305 141.385c21.831-2.079 59.257-5.198 90.445-8.317l234.948-450.144c-11.435-21.831-24.95-40.544-36.386-48.861-3.119-2.079-5.198-4.159-8.317-4.159l-2.079-1.039c-4.159 0-11.435 3.119-22.871 14.554l-63.415 99.801-88.365 139.305c-11.435 16.633-35.346 21.831-53.019 11.435-17.673-11.435-21.831-35.346-11.435-53.019l82.128-127.87 5.198-8.317 69.653-107.078v-1.039l4.159-4.159c13.515-14.554 27.029-24.95 41.584-31.188 11.435-5.198 22.871-8.317 35.346-8.317h8.317c15.594 2.079 29.109 7.277 41.584 15.594 40.544 27.029 66.534 79.009 80.049 111.237l86.286 1.039v-68.613h259.899v74.851h-184.008v648.707z" />
<glyph unicode="&#xe90f;" glyph-name="heart" horiz-adv-x="1205" d="M1114.5 871.307c-56.441 56.441-137.071 88.693-225.764 88.693-80.63 0-161.26-32.252-225.764-96.756l-145.134-145.134c-16.126-16.126-16.126-40.315 0-48.378 8.063-8.063 16.126-16.126 24.189-16.126s24.189 8.063 24.189 16.126l145.134 145.134c48.378 48.378 112.882 72.567 177.386 72.567 72.567 0 129.008-24.189 177.386-72.567 88.693-88.693 88.693-249.953-8.063-346.709l-56.441-56.441-48.378-56.441-346.709-346.709-459.591 459.591c-96.756 96.756-96.756 258.016 0 346.709 40.315 48.378 104.819 72.567 169.323 72.567s129.008-24.189 177.386-72.567l8.063-16.126 48.378 56.441-8.063 8.063c-56.441 64.504-137.071 96.756-225.764 96.756s-161.26-32.252-225.764-88.693c-120.945-129.008-120.945-330.583 8.063-451.528l64.504-64.504 48.378-56.441 338.646-330.583v-8.063c16.126-8.063 32.252-24.189 56.441-24.189 16.126 0 32.252 8.063 48.378 24.189l395.087 395.087 56.441 64.504c129.008 120.945 129.008 322.52 8.063 451.528z" />
<glyph unicode="&#xe910;" glyph-name="home" horiz-adv-x="1152" d="M1139.831 480.971l-542.052 469.455c-14.519 12.1-33.879 12.1-45.977 0l-203.27-176.651v70.177c0 19.359-16.939 33.879-33.879 33.879h-125.833c-19.359 0-36.298-14.519-36.298-33.879v-239.568l-140.352-123.414c-14.519-12.1-16.939-33.879-2.42-48.398 12.1-14.519 33.879-16.939 48.398-4.84l164.551 145.193v234.728h55.657v-186.33l295.224 258.926 520.273-452.517c7.26-4.84 14.519-7.26 21.779-7.26 12.1 0 21.779 2.42 26.619 12.1 14.519 14.519 12.1 36.298-2.42 48.398zM926.882 6.676h-215.368v215.368c0 19.359-14.519 33.879-33.879 33.879h-203.27c-19.359 0-33.879-14.519-33.879-33.879v-215.368h-217.789v389.599l353.301 314.584 350.882-314.584v-389.599zM597.779 783.455c-12.1 12.1-33.879 12.1-45.977 0l-384.76-346.042c-9.679-4.84-12.1-14.519-12.1-24.198v-442.836c0-16.939 14.519-33.879 33.879-33.879h321.843v251.666h130.673v-251.666h321.843c19.359 0 33.879 16.939 33.879 33.879v442.836c0 9.679-4.84 19.359-12.1 26.619l-387.18 343.622z" />
<glyph unicode="&#xe911;" glyph-name="kalendar" horiz-adv-x="1012" d="M918.657 4.776h-825.314c-15.284 0-30.567 7.642-30.567 22.925v512h886.449v-512c0-15.284-15.284-22.925-30.567-22.925zM918.657 860.657h-99.343v-61.134h99.343c15.284 0 30.567-15.284 30.567-30.567v-168.119h-886.449v168.119c0 15.284 15.284 30.567 30.567 30.567h114.627v-84.060c0-15.284 15.284-30.567 30.567-30.567 22.925 0 30.567 15.284 30.567 30.567v213.97c0 15.284-7.642 30.567-30.567 30.567-15.284 0-30.567-15.284-30.567-30.567v-68.776h-114.627c-53.493 0-91.701-38.209-91.701-91.701v-741.255c0-45.851 38.209-91.701 91.701-91.701h825.314c53.493 0 91.701 45.851 91.701 91.701v741.255c0 53.493-38.209 91.701-91.701 91.701zM689.404 715.463c0-15.284 7.642-30.567 30.567-30.567 15.284 0 30.567 15.284 30.567 30.567v213.97c0 15.284-15.284 30.567-30.567 30.567-22.925 0-30.567-15.284-30.567-30.567v-68.776h-106.985v-61.134h106.985v-84.060zM444.866 715.463c0-15.284 15.284-30.567 38.209-30.567 15.284 0 30.567 15.284 30.567 30.567v213.97c0 15.284-15.284 30.567-30.567 30.567-22.925 0-38.209-15.284-38.209-30.567v-68.776h-99.343v-61.134h99.343v-84.060zM177.404 234.030h76.418v76.418h-76.418zM322.598 234.030h76.418v76.418h-76.418zM467.792 234.030h76.418v76.418h-76.418zM612.986 234.030h76.418v76.418h-76.418zM758.18 234.030h76.418v76.418h-76.418zM322.598 379.224h76.418v76.418h-76.418zM467.792 379.224h76.418v76.418h-76.418zM612.986 379.224h76.418v76.418h-76.418zM758.18 379.224h76.418v76.418h-76.418zM177.404 88.836h76.418v76.418h-76.418zM322.598 88.836h76.418v76.418h-76.418zM467.792 88.836h76.418v76.418h-76.418zM612.986 88.836h76.418v76.418h-76.418z" />
<glyph unicode="&#xe912;" glyph-name="like" horiz-adv-x="1049" d="M202.954-63.999h-202.822v64.309h138.512v524.368h-138.512v64.309h202.822zM974.664 490.049c-9.894-9.894-19.787-14.841-39.575-14.841v0h-24.734c-19.787 0-34.628-14.841-34.628-34.628 0-14.841 14.841-29.681 34.628-29.681h29.681c44.522 0 69.256 19.787 84.096 34.628s19.787 34.628 24.734 54.415h-69.256c0-4.947-4.947-9.894-4.947-9.894zM836.152 34.938h-544.155v-64.309h544.155c79.15 0 113.777 54.415 123.671 93.99h-69.256c-9.894-14.841-24.734-29.681-54.415-29.681zM603.65 554.358l445.218 4.947c0 9.894-9.894 19.787-14.841 29.681-14.841 19.787-39.575 34.628-64.309 34.628 0 0-4.947 0-4.947 0h-262.184c34.628 103.884 19.787 227.556 19.787 232.503-9.894 74.203-59.362 103.884-103.884 103.884-4.947 0-9.894 0-14.841 0-69.256-4.947-93.99-54.415-98.937-89.043v-4.947c0-187.981-143.459-262.184-212.715-291.865v-64.309c74.203 24.734 277.024 113.777 277.024 356.174 0 9.894 9.894 29.681 39.575 29.681h4.947c0 0 4.947 0 4.947 0 14.841 0 34.628-4.947 39.575-49.468 0 0 14.841-148.406-29.681-242.396l-24.734-49.468zM954.877 341.644c-9.894-9.894-19.787-14.841-39.575-14.841v0h-24.734c-19.787 0-34.628-9.894-34.628-29.681s14.841-34.628 34.628-34.628h34.628c39.575 4.947 64.309 19.787 79.15 34.628 14.841 19.787 19.787 39.575 24.734 59.362h-69.256c0-4.947 0-9.894-4.947-14.841zM925.195 198.184c-9.894-9.894-19.787-14.841-39.575-14.841v0h-24.734c-19.787 0-34.628-14.841-34.628-29.681 0-19.787 14.841-34.628 34.628-34.628h29.681c44.522 0 69.256 19.787 84.096 34.628 14.841 19.787 19.787 34.628 24.734 54.415h-69.256c0-4.947-4.947-4.947-4.947-9.894z" />
<glyph unicode="&#xe913;" glyph-name="link" horiz-adv-x="640" d="M310.299 407.48c-0.111 0.334-15.023 12.353-17.137 14.466-19.030 19.14-28.044 42.844-24.482 69.999 4.34 33.052 29.713 53.974 52.081 75.896 21.477 21.143 43.178 41.955 64.434 63.322 17.471 17.471 46.406 50.969 67.662 60.317 70.777 30.938 143.668-44.626 108.837-113.734-9.682-19.364-44.069-50.189-60.651-66.882-22.145-22.258-15.134-11.796-7.902-40.397 4.785-19.030 6.343-37.502 6.788-57.089 16.582 14.133 32.161 31.049 47.631 46.517 15.581 15.581 31.716 31.159 47.074 47.074 37.392 38.283 52.972 87.026 41.843 140.219-21.477 102.494-143.558 154.465-232.030 97.152-19.253-12.463-33.386-28.712-49.521-44.626-31.493-31.049-62.654-62.988-94.147-94.147-16.916-16.803-30.938-29.936-43.067-51.080-25.484-44.292-24.595-105.722 1.112-149.791 5.342-9.237 12.797-19.14 20.031-27.042 3.672-4.006 7.902-7.789 12.019-11.351 2.114-1.893 4.23-3.672 6.454-5.342 4.563-3.672 3.005-4.006 6.12-0.891 4.674 4.785 46.183 45.849 46.85 47.407v0zM378.627 538.907c-10.683-11.017-23.704-25.15-34.832-35.165-24.482-21.924-6.788-15.247 7.568-33.943 24.261-31.493 29.49-70.444 3.896-103.272-9.459-12.129-23.37-24.705-34.387-35.723-34.832-34.832-70.777-70.22-105.054-105.164-62.875-64.211-160.918-8.013-144.336 74.673 6.567 32.607 39.952 54.642 61.319 79.013 17.584 20.031 25.484 13.688 15.247 41.955-2.894 7.902-5.008 20.476-6.233 28.935-1.002 6.9-1.002 30.491-1.78 33.052-3.896-1.002-79.124-77.565-88.806-87.247-36.28-35.833-54.085-72.336-50.857-124.528 6.12-98.711 106.944-167.262 201.315-135.879 41.509 13.799 69.219 47.074 99.045 77.010 29.269 29.379 58.535 58.982 88.027 88.027 34.61 34.164 54.976 74.116 51.637 123.971-3.228 49.077-25.15 83.687-61.763 114.289v0z" />
<glyph unicode="&#xe914;" glyph-name="list" horiz-adv-x="832" d="M210.326 417.367l-70.017 52.513 26.256 35.009 35.009-26.256 61.265 78.769 35.009-35.009zM210.326 251.076l-70.017 61.265 26.256 35.009 35.009-35.009 61.265 78.769 35.009-26.256zM210.326 93.537l-70.017 52.513 26.256 35.009 35.009-26.256 61.265 70.017 35.009-26.256zM770.463 23.52c0-17.504-8.752-26.256-26.256-26.256h-656.411c-17.504 0-26.256 8.752-26.256 26.256v682.668l192.547 166.291v-175.043h-87.521v-61.265h148.786v262.564h428.855c17.504 0 26.256-8.752 26.256-26.256v-848.958zM744.206 959.999h-490.12c0 0-8.752-8.752-8.752-8.752l-236.308-192.547c0-8.752-8.752-17.504-8.752-17.504v0-717.676c0-52.513 43.761-87.521 87.521-87.521h656.411c52.513 0 87.521 35.009 87.521 87.521v848.958c0 43.761-35.009 87.521-87.521 87.521zM656.685 111.042h-280.068c-17.504 0-26.256 8.752-26.256 26.256s8.752 35.009 26.256 35.009h280.068c17.504 0 35.009-17.504 35.009-35.009s-17.504-26.256-35.009-26.256zM656.685 277.332h-280.068c-17.504 0-26.256 17.504-26.256 35.009s8.752 26.256 26.256 26.256h280.068c17.504 0 35.009-8.752 35.009-26.256s-17.504-35.009-35.009-35.009zM656.685 452.375h-280.068c-17.504 0-26.256 17.504-26.256 26.256 0 17.504 8.752 35.009 26.256 35.009h280.068c17.504 0 35.009-17.504 35.009-35.009 0-8.752-17.504-26.256-35.009-26.256z" />
<glyph unicode="&#xe915;" d="M258.155 194.155v507.69h507.69l258.154 258.154h-1024v-1024z" />
<glyph unicode="&#xe916;" d="M303.796-62.021v259.85h259.991v-259.85z" />
<glyph unicode="&#xe917;" d="M308.883 651.261c-1.696 0-3.391-0.141-5.087-0.141v-267.198c0.989 0 2.12 0.141 3.109 0.141 246.427 0 446.084-199.798 446.084-446.084v0h269.176c0 393.944-319.338 713.282-713.282 713.282z" />
<glyph unicode="&#xe918;" glyph-name="logo-site-text" horiz-adv-x="9610" d="M392.873 119.783h-196.608v277.184h196.608c87.561 0 140.204-56.404 140.204-138.593 0-83.262-52.644-138.593-140.204-138.593zM402.543 572.626h-206.277v203.591h469.495v175.121h-666.103v-1007.213h402.885c204.129 0 327.142 130.535 327.142 314.25s-124.626 314.25-327.142 314.25zM1732.063 494.735c0-315.324-71.983-374.952-172.434-374.952h-516.23v244.954h397.513v175.121h-397.513v236.359h466.809v175.121h-663.417v-1007.213h762.258c209.5 0 312.639 116.031 312.639 539.329v292.763h240.657v-832.091h196.608v1007.213h-626.889v-456.603zM2521.718-55.875h196.071v832.091h437.265v175.121h-633.335zM3654.093 164.906c-30.619-35.454-74.668-53.718-125.7-53.718s-93.469 19.876-127.312 53.718c-46.735 46.735-47.809 141.816-47.809 246.028v51.032c0 124.626 2.686 219.169 47.809 268.59 31.156 35.454 76.28 54.255 127.312 54.255s95.080-18.801 125.7-54.255c39.751-43.511 49.958-98.841 49.958-264.292 0-205.203-8.595-254.624-49.958-301.358zM3528.392 959.933c-109.047 0-201.98-38.14-272.887-110.122-77.891-79.502-98.841-160.079-98.841-360.985v-83.262c0-109.047 1.074-258.921 98.841-359.374 70.907-71.983 163.84-110.122 272.887-110.122s200.906 36.528 271.813 110.122c98.841 102.064 100.453 233.673 100.453 364.745v107.973c0 162.229-30.082 258.384-100.453 330.903-70.907 71.983-164.377 110.122-271.813 110.122zM4361.559 784.812c98.841 0 149.874-62.85 169.749-143.427h199.293c-35.454 211.111-182.641 318.548-370.654 318.548-110.122 0-200.906-39.751-271.276-110.122-102.064-102.064-99.379-227.765-99.379-401.811s-2.686-300.283 99.379-401.811c70.37-70.907 161.154-110.122 271.276-110.122 186.938 0 335.2 107.436 370.654 318.011h-199.293c-19.876-80.577-70.907-142.89-169.749-142.89-53.718 0-97.767 19.876-125.7 52.644-38.677 42.437-49.958 90.246-49.958 284.168 0 193.385 11.281 241.731 49.958 284.168 27.933 32.768 71.983 52.644 125.7 52.644zM4822.459-55.875h196.608v832.091h341.109v-832.091h196.608v1007.213h-734.325zM6093.963 500.106h-183.715v276.11h183.715c87.561 0 145.576-55.329 145.576-138.593 0-83.8-58.015-137.518-145.576-137.518zM6104.17 951.338h-390.53v-1007.213h196.608v379.249h193.922c194.996 0 331.978 129.997 331.978 314.25 0 183.715-138.593 313.713-331.978 313.713zM6987.83 164.906c-31.156-35.454-74.668-53.718-125.7-53.718s-93.469 19.876-127.312 53.718c-46.735 46.735-48.346 141.816-48.346 246.028v51.032c0 124.626 3.223 219.169 48.346 268.59 31.156 35.454 76.28 54.255 127.312 54.255s94.543-18.801 125.7-54.255c39.751-43.511 49.421-98.841 49.421-264.292 0-205.203-8.595-254.624-49.421-301.358zM6862.131 959.933c-109.047 0-202.517-38.14-273.424-110.122-77.354-79.502-98.841-160.079-98.841-360.985v-83.262c0-109.047 1.611-258.921 98.841-359.374 70.907-71.983 164.377-110.122 273.424-110.122s200.368 36.528 271.276 110.122c99.379 102.064 100.453 233.673 100.453 364.745v107.973c0 162.229-29.545 258.384-100.453 330.903-70.907 71.983-163.84 110.122-271.276 110.122zM7356.874-55.875h663.417v175.658h-466.809v244.954h397.513v175.121h-397.513v236.359h466.809v175.121h-663.417zM8894.283 951.338h-234.747l-325.531-478.090v478.090h-196.608v-1007.213h196.608v526.437l354.001-526.437h240.12l-371.729 535.031 330.903 462.512v-165.452h263.218v-832.091h196.608v832.091h263.218v175.121z" />
<glyph unicode="&#xe919;" glyph-name="message" horiz-adv-x="1077" d="M57.928 119.325c0 31.427 23.57 57.616 57.616 57.616h269.75c31.427 0 57.616-26.189 57.616-57.616v-183.325h57.616v183.325c0 62.854-52.379 112.614-115.233 112.614h-269.75c-62.854 0-115.233-49.759-115.233-112.614v-183.325h57.616v183.325zM935.268 960h-343.080c-78.568 0-141.422-62.854-141.422-141.422v-175.468c0-75.949 62.854-138.803 141.422-138.803h20.951l-86.425-81.187c-10.476-10.476-13.095-28.808-2.619-39.284 5.238-7.857 13.095-10.476 20.951-10.476s13.095 2.619 20.951 7.857l191.181 178.087h-164.992c-47.141 0-83.805 39.284-83.805 83.805v175.468c0 47.141 36.665 83.805 83.805 83.805h343.080c47.141 0 86.425-36.665 86.425-83.805v-175.468c0-44.522-39.284-83.805-86.425-83.805h-91.662l-60.235-54.997h151.897c78.568 0 141.422 62.854 141.422 138.803v175.468c0 78.568-62.854 141.422-141.422 141.422zM246.49 352.409c-60.235 0-109.995 49.759-109.995 109.995 0 62.854 49.759 112.614 109.995 112.614s112.614-49.759 112.614-112.614c0-60.235-52.379-109.995-112.614-109.995zM246.49 630.015c-91.662 0-167.612-73.33-167.612-167.612 0-91.662 75.949-167.612 167.612-167.612s167.612 75.949 167.612 167.612c0 94.281-75.949 167.612-167.612 167.612z" />
<glyph unicode="&#xe91a;" glyph-name="money" horiz-adv-x="779" d="M280.669 644.085h-174.298c-57.191 0-106.213-49.021-106.213-108.936v-223.319c0-49.021 35.404-92.596 84.426-103.489v-236.936h51.745v285.957h-29.957c-29.957 0-54.468 24.511-54.468 54.468v223.319c0 29.957 24.511 54.468 54.468 54.468h174.298c29.957 0 54.468-24.511 54.468-54.468v-43.574c16.34 10.894 32.681 19.064 51.745 24.511v19.064c0 59.915-49.021 108.936-106.213 108.936zM193.52 908.255c43.574 0 76.255-35.404 76.255-78.979 0-40.851-32.681-76.255-76.255-76.255-40.851 0-76.255 35.404-76.255 76.255 0 43.574 35.404 78.979 76.255 78.979zM193.52 698.553c73.532 0 130.723 59.915 130.723 130.723 0 73.532-57.191 130.723-130.723 130.723-70.809 0-130.723-57.191-130.723-130.723 0-70.809 59.915-130.723 130.723-130.723zM503.988-9.532c-122.553 0-223.319 98.043-223.319 220.596s100.766 223.319 223.319 223.319c122.553 0 223.319-100.766 223.319-223.319s-100.766-220.596-223.319-220.596zM503.988 488.851c-152.511 0-275.064-125.277-275.064-277.787s122.553-275.064 275.064-275.064c152.511 0 275.064 122.553 275.064 275.064s-122.553 277.787-275.064 277.787zM479.478 300.936c-38.128-5.447-62.638-21.787-62.638-29.957 0-10.894 24.511-27.234 62.638-32.681h5.447v65.362l-5.447-2.723zM528.499 123.915h5.447c35.404 5.447 59.915 21.787 59.915 32.681s-24.511 24.511-59.915 29.957l-5.447 2.723v-65.362zM484.925 39.489v38.128h-5.447c-51.745 5.447-92.596 29.957-106.213 59.915l46.298 10.894c8.17-8.17 29.957-19.064 59.915-24.511h5.447v70.809h-5.447c-40.851 5.447-62.638 16.34-73.532 21.787h-2.723c-21.787 16.34-32.681 32.681-32.681 54.468 0 38.128 46.298 70.809 108.936 76.255h5.447v40.851h43.574v-40.851h2.723c49.021-5.447 87.149-27.234 100.766-54.468l-43.574-13.617c-8.17 8.17-27.234 19.064-54.468 21.787h-5.447v-73.532h2.723c29.957-5.447 54.468-10.894 70.809-19.064 8.17-2.723 13.617-8.17 19.064-10.894 0-2.723 2.723-2.723 2.723-5.447 10.894-10.894 13.617-21.787 13.617-35.404 0-38.128-43.574-70.809-106.213-76.255l-2.723-2.723v-38.128h-43.574z" />
<glyph unicode="&#xe91b;" glyph-name="needs" horiz-adv-x="1081" d="M274.422 645.544c0 137.071 120.945 258.016 266.079 258.016s266.079-120.945 274.142-258.016c16.126-8.063 40.315-8.063 56.441-16.126v0c0 185.449-145.134 330.582-330.582 330.582-177.386 0-330.582-145.134-330.582-330.582v0c24.189 8.063 40.315 8.063 64.504 16.126zM645.319 379.465c-16.126 32.252-32.252 72.567-56.441 96.756 40.315 40.315 96.756 56.441 161.26 56.441 16.126 0 32.252 0 48.378 0-32.252-72.567-88.693-129.008-153.197-153.197zM605.004 266.582c0-64.504-24.189-129.008-64.504-169.323-40.315 40.315-56.441 104.819-56.441 169.323 0 8.063 0 24.189 0 32.252 16.126 0 40.315 0 56.441 0 24.189 0 40.315 0 56.441 0 8.063-8.063 8.063-24.189 8.063-32.252zM56.72 266.582c0 112.882 72.567 209.638 177.386 249.953 32.252-88.693 104.819-161.26 193.511-201.575-8.063-16.126-8.063-32.252-8.063-48.378 0-80.63 32.252-161.26 80.63-217.701-48.378-32.252-104.819-56.441-169.323-56.441-145.134 0-274.142 120.945-274.142 274.142zM500.186 476.22c-24.189-24.189-48.378-64.504-56.441-96.756-72.567 24.189-129.008 80.63-153.197 153.197 16.126 0 24.189 0 40.315 0 64.504 0 120.945-16.126 169.323-56.441zM540.501 435.905c16.126-24.189 32.252-48.378 48.378-72.567-16.126-8.063-32.252-8.063-48.378-8.063s-24.189 0-40.315 8.063c8.063 24.189 24.189 48.378 40.315 72.567zM750.139 597.166c-80.63 0-153.197-32.252-209.638-80.63-56.441 48.378-129.008 80.63-209.638 80.63-185.449 0-330.582-153.197-330.582-330.582 0-185.449 145.134-330.582 330.582-330.582s330.582 145.134 330.582 330.582c0 16.126 0 32.252 0 48.378 88.693 40.315 161.26 112.882 193.511 201.575 96.756-40.315 169.323-137.071 169.323-249.953 0-153.197-120.945-274.142-274.142-274.142-40.315 0-80.63 8.063-120.945 32.252-16.126-16.126-24.189-32.252-40.315-48.378 48.378-24.189 104.819-40.315 161.26-40.315 185.449 0 330.582 145.134 330.582 330.582 0 177.386-145.134 330.582-330.582 330.582z" />
<glyph unicode="&#xe91c;" glyph-name="paper" horiz-adv-x="1276" d="M1033.612 164.716h-186.228v228.597h186.228v-228.597zM772.499 468.198v-378.368h335.999v378.368h-335.999zM657.215 392.328h-258.158c-20.692 0-37.442 16.751-37.442 37.442s16.751 37.442 37.442 37.442h258.158c20.692 0 37.442-16.751 37.442-37.442s-16.751-37.442-37.442-37.442zM657.215 240.586h-258.158c-20.692 0-37.442 16.751-37.442 37.442s16.751 37.442 37.442 37.442h258.158c20.692 0 37.442-16.751 37.442-37.442s-16.751-37.442-37.442-37.442zM657.215 89.83h-258.158c-20.692 0-37.442 16.751-37.442 37.442s16.751 37.442 37.442 37.442h258.158c20.692 0 37.442-16.751 37.442-37.442s-16.751-37.442-37.442-37.442zM1075.982 578.556h-676.925c-20.692 0-37.442 16.751-37.442 37.442s16.751 37.442 37.442 37.442h676.925c20.692 0 37.442-16.751 37.442-37.442s-16.751-37.442-37.442-37.442zM1075.982 730.297h-676.925c-20.692 0-37.442 16.751-37.442 37.442s16.751 37.442 37.442 37.442h676.925c20.692 0 37.442-16.751 37.442-37.442s-16.751-37.442-37.442-37.442zM277.862 886.965l-3.941-1.971-1.971-3.941v-801.076c0-21.677-3.941-42.37-12.81-62.076-0.985-1.971-0.985-3.941 0-5.912s2.956-2.956 4.926-2.956h868.080c39.413 0 70.944 31.531 70.944 69.958v802.061c0 2.956-2.956 5.912-6.897 5.912h-918.331zM139.915-63.882h-1.971c-76.856 0-137.947 65.032-137.947 143.859v703.528h72.914v-703.528c0-39.413 28.575-70.944 63.061-70.944 33.501 0 61.091 29.56 63.061 67.003v883.845h1076.969v-880.888c0-78.827-65.032-142.874-143.859-142.874h-992.231z" />
<glyph unicode="&#xe91d;" glyph-name="paper-cart" horiz-adv-x="832" d="M770.485 24.414c0-14.326-12.078-26.404-26.685-26.404h-655.604c-14.326 0-26.404 12.078-26.404 26.404v683.693l181.175 152.524v-145.502h-76.965v-61.796h138.761v244.658h439.035c14.607 0 26.685-12.078 26.685-26.404v-847.173zM743.8 959.787h-482.574l-7.303-1.124v-0.562c-4.494-1.404-8.707-3.651-12.64-6.741l-228.647-192.412c-7.022-5.618-10.954-13.482-12.078-21.91l-0.562 0.281v-712.906c0-48.595 39.605-88.2 88.2-88.2h655.604c48.595 0 88.2 39.605 88.2 88.2v847.173c0 48.595-39.605 88.2-88.2 88.2zM418.808 461.763c0 14.326 12.078 26.404 26.404 26.404h144.379c14.326 0 26.404-12.078 26.404-26.404v-86.515h61.796v86.515c0 48.314-39.886 88.2-88.2 88.2h-144.379c-48.314 0-88.2-39.886-88.2-88.2v-86.515h61.796v86.515zM667.679 225.533h-505.045c-17.135 0-30.898 13.763-30.898 30.898 0 16.854 13.763 30.898 30.898 30.898h505.045c16.854 0 30.898-14.044 30.898-30.898 0-17.135-14.044-30.898-30.898-30.898zM667.679 94.076h-505.045c-17.135 0-30.898 14.044-30.898 30.898 0 17.135 13.763 30.898 30.898 30.898h505.045c16.854 0 30.898-13.763 30.898-30.898 0-16.854-14.044-30.898-30.898-30.898zM517.401 660.916c-27.528 0-49.718 22.472-49.718 49.999s22.191 49.718 49.718 49.718c27.528 0 49.718-22.191 49.718-49.718s-22.191-49.999-49.718-49.999zM517.401 822.43c-61.515 0-111.515-49.999-111.515-111.515 0-61.796 49.999-111.515 111.515-111.515s111.515 49.718 111.515 111.515c0 61.515-49.999 111.515-111.515 111.515z" />
<glyph unicode="&#xe91e;" glyph-name="paper-pen" horiz-adv-x="1087" d="M956.223 359.306v-362.833h-894.99v483.778h564.408c0 4.032 4.032 8.063 4.032 12.094l20.157 44.346h-649.069v-600.691h1015.933v572.47l-60.472-149.165zM940.097 899.525c-16.126 0-32.252-8.063-36.283-24.189l-28.221-68.535c-4.032-4.032 0-8.063 0-8.063l112.881-44.346h4.032c0 0 4.032 0 4.032 0l28.221 72.567c4.032 8.063 4.032 20.157 0 32.252-4.032 8.063-12.094 16.126-24.189 20.157l-44.346 20.157c-4.032 0-8.063 0-16.126 0zM851.405 746.328c0 0-4.032-4.032-4.032-4.032l-108.85-278.172v-8.063l112.881-44.346h4.032c0 0 4.032 0 4.032 4.032l112.881 278.172v4.032h-4.032l-112.881 48.378h-4.032zM734.492 395.588h-4.032c0-4.032 0-4.032 0-4.032l12.094-72.567c0-4.032 0-4.032 4.032-4.032v0h4.032l60.472 40.315c0 4.032 4.032 4.032 0 8.063 0 0 0 0 0 4.032l-72.567 28.221h-4.032zM702.239 177.889c-4.032 0-8.063 0-12.094 4.032-16.126 4.032-20.157 24.189-16.126 36.283l20.157 44.346v4.032l-32.252 165.291c4.032 12.094 8.063 20.157 12.094 36.283l120.945 294.298v4.032l-4.032 4.032-44.346 16.126h-4.032c0 0-4.032 0-4.032 0l-40.315-104.819c-4.032-12.094-16.126-20.157-28.221-20.157-4.032 0-8.063 4.032-12.094 4.032-4.032 4.032-12.094 8.063-16.126 16.126 0 8.063 0 16.126 0 20.157l80.63 201.574c4.032 12.094 16.126 20.157 28.221 20.157 4.032 0 8.063-4.032 12.094-4.032 16.126-4.032 20.157-24.189 16.126-36.283l-12.094-32.252v-8.063l48.378-20.157c0 0 4.032 4.032 4.032 4.032l28.221 68.535c16.126 40.315 52.41 64.504 92.724 64.504 12.094 0 28.221-4.032 40.315-8.063l44.346-16.126c24.189-12.094 44.346-28.221 52.41-56.441 12.094-24.189 12.094-48.378 0-76.598l-169.323-427.338c-8.063-12.094-12.094-24.189-20.157-36.283v0l-141.102-96.756-16.126-44.346c-8.063-12.094-16.126-20.157-28.221-20.157zM524.854 335.117h-358.802c-16.126 0-28.221 12.094-28.221 28.221s12.094 32.252 28.221 32.252h358.802c16.126 0 32.252-16.126 32.252-32.252s-16.126-28.221-32.252-28.221zM524.854 214.172h-358.802c-16.126 0-28.221 16.126-28.221 32.252s12.094 28.221 28.221 28.221h358.802c16.126 0 32.252-12.094 32.252-28.221s-16.126-32.252-32.252-32.252zM811.090 69.038h-229.794c-20.157 0-32.252 16.126-32.252 32.252s12.094 28.221 32.252 28.221h229.794c16.126 0 28.221-12.094 28.221-28.221s-12.094-32.252-28.221-32.252z" />
<glyph unicode="&#xe91f;" glyph-name="people" horiz-adv-x="944" d="M826.74 527.249h-94.776v-57.829h94.776c32.662 0 59.436-26.238 59.436-58.9v-163.314c0-32.662-26.773-59.436-59.436-59.436h-26.238v-251.664h57.829v198.119c49.262 13.922 85.673 59.436 85.673 112.981v163.314c0 64.255-53.010 116.729-117.265 116.729zM117.261 469.42h93.169v57.829h-93.169c-64.255 0-117.265-52.474-117.265-116.729v-163.314c0-53.545 36.411-99.059 85.673-112.981v-198.119h57.829v251.664h-26.238c-32.662 0-59.436 26.773-59.436 59.436v163.314c0 32.662 26.773 58.9 59.436 58.9zM673.6 527.249c-0.536 12.851-3.212 24.631-7.496 36.411-9.638 24.095-27.308 43.907-49.262 57.293-17.67 10.709-38.017 16.6-59.971 16.6h-171.346c-21.954 0-42.301-5.89-59.971-16.6-21.954-13.386-39.624-33.198-48.726-57.293-4.819-11.78-7.496-23.56-8.031-36.411 0-2.142-0.536-4.284-0.536-6.961v-223.286c0-15.528 3.212-29.986 8.567-42.836 9.103-23.024 25.167-42.836 45.514-55.688l3.212-2.142c8.567-5.355 18.205-9.103 28.379-12.316v-247.917h57.829v301.462h-26.238c-14.457 0-27.308 5.355-37.482 13.386-13.386 11.245-21.954 27.308-21.954 46.050v224.357c0.536 32.128 26.773 58.365 59.436 58.365h171.346c32.662 0 59.436-26.238 59.436-58.9v-223.821c0-18.205-8.031-33.734-20.347-44.978-10.709-8.567-24.095-14.457-39.088-14.457h-26.238v-301.462h57.829v247.917c10.174 3.212 19.812 6.961 28.379 12.316l4.284 2.677c19.812 12.851 35.876 32.128 44.978 55.152 4.819 12.851 8.031 27.308 8.031 42.836v223.286c0 2.677 0 4.819-0.536 6.961zM471.197 902.068c43.372 0 78.176-35.34 78.176-78.176 0-43.372-34.805-78.712-78.176-78.712s-78.176 35.34-78.176 78.712c0 42.836 34.805 78.176 78.176 78.176zM471.197 687.35c75.5 0 136.541 61.042 136.541 136.541 0 74.964-61.042 136.006-136.541 136.006-74.964 0-136.006-61.042-136.006-136.006 0-75.5 61.042-136.541 136.006-136.541zM785.511 791.765c43.372 0 78.176-35.34 78.176-78.176 0-43.372-34.805-78.712-78.176-78.712s-78.712 35.34-78.712 78.712c0 42.836 35.34 78.176 78.712 78.176zM785.511 577.046c74.964 0 136.006 61.042 136.006 136.541 0 74.964-61.042 136.006-136.006 136.006-75.5 0-136.541-61.042-136.541-136.006 0-75.5 61.042-136.541 136.541-136.541zM158.49 791.765c43.372 0 78.176-35.34 78.176-78.176 0-43.372-34.805-78.712-78.176-78.712s-78.176 35.34-78.176 78.712c0 42.836 34.805 78.176 78.176 78.176zM158.49 577.046c74.964 0 136.006 61.042 136.006 136.541 0 74.964-61.042 136.006-136.006 136.006-75.5 0-136.541-61.042-136.541-136.006 0-75.5 61.042-136.541 136.541-136.541z" />
<glyph unicode="&#xe920;" glyph-name="people-cicle" horiz-adv-x="1059" d="M945.501 692.364c-11.637 14.545-32 14.545-46.545 0l-46.545-46.545v128c0 69.818-55.273 125.090-122.182 125.090h-305.454v-64h305.454c32 0 58.182-26.182 58.182-61.090v-130.909l-49.455 49.455c-14.545 14.545-34.909 14.545-46.545 0-11.637-11.637-11.637-32 0-43.636l104.728-104.728c5.818-5.818 14.545-8.727 20.364-8.727 2.909 0 5.818 0 5.818 0 8.727 0 14.545 2.909 17.454 8.727l104.728 104.728c11.637 11.637 11.637 32 0 43.636zM229.864 759.272c-37.818 0-66.909 29.091-66.909 66.909s29.091 69.818 66.909 69.818c37.818 0 69.818-32 69.818-69.818s-32-66.909-69.818-66.909zM229.864 960c-72.727 0-133.819-61.090-133.819-133.819s61.090-133.819 133.819-133.819c72.727 0 133.819 61.090 133.819 133.819s-61.090 133.819-133.819 133.819zM823.319 270.545c-37.818 0-66.909 29.091-66.909 66.909s29.091 69.818 66.909 69.818c37.818 0 69.818-32 69.818-69.818s-32-66.909-69.818-66.909zM823.319 471.272c-72.727 0-133.819-58.182-133.819-133.819 0-72.727 61.090-130.909 133.819-130.909 75.636 0 133.819 58.182 133.819 130.909 0 75.636-58.182 133.819-133.819 133.819zM322.955 46.545c-34.909 0-61.090 29.091-61.090 61.090v162.909l52.363-52.363c5.818-5.818 14.545-8.727 20.364-8.727 8.727 0 17.454 2.909 23.272 8.727 14.545 14.545 14.545 34.909 0 46.545l-101.818 101.818c-8.727 8.727-20.364 11.637-29.091 8.727-5.818 0-14.545-2.909-17.454-8.727l-104.728-101.818c-11.637-11.637-11.637-34.909 0-46.545 5.818-5.818 14.545-8.727 23.272-8.727s17.454 2.909 23.272 8.727l46.545 46.545v-157.091c0-69.818 55.273-125.090 125.090-125.090h206.546v64h-206.546zM64.046 424.728v84.364c0 34.909 29.091 64 64 64h209.454c34.909 0 64-29.091 64-64v-87.273h64v87.273c0 72.727-58.182 128-128 128h-209.454c-69.818 0-128-55.273-128-128v-87.273h64v2.909zM657.501-64v84.364c0 37.818 29.091 64 64 64h209.454c34.909 0 64-26.182 64-64v-84.364h64v84.364c0 72.727-58.182 130.909-128 130.909h-209.454c-69.818 0-128-58.182-128-130.909v-84.364h64z" />
<glyph unicode="&#xe921;" glyph-name="tea" horiz-adv-x="832" d="M201.806 653.005c-10.892 0-21.782 7.26-25.412 18.152-5.446 12.706 1.816 29.044 16.336 34.488 30.858 10.892 63.532 29.044 74.424 39.934-5.446 3.63-9.076 7.26-12.706 10.892-25.412 19.968-58.086 43.564-58.086 85.314 0 34.488 25.412 70.793 79.869 112.542 10.892 9.076 27.228 7.26 36.304-5.446 9.076-10.892 7.26-27.228-3.63-36.304-50.826-39.934-58.086-61.716-58.086-70.793 0-14.522 18.152-29.044 36.304-43.564 5.446-5.446 10.892-9.076 16.336-14.522 19.968-16.336 19.968-34.488 18.152-43.564-7.26-43.564-79.869-74.424-110.728-85.314-3.63-1.816-5.446-1.816-9.076-1.816zM379.696 653.005c-10.892 0-19.968 7.26-23.598 18.152-5.446 12.706 1.816 29.044 14.522 34.488 30.858 10.892 63.532 29.044 74.424 39.934-3.63 3.63-9.076 7.26-12.706 10.892-25.412 19.968-58.086 43.564-58.086 85.314 1.816 34.488 25.412 70.793 79.869 112.542 12.706 9.076 29.044 7.26 38.12-5.446 9.076-10.892 7.26-27.228-5.446-36.304-50.826-39.934-58.086-61.716-58.086-70.793 0-14.522 18.152-29.044 36.304-43.564 5.446-5.446 12.706-9.076 18.152-14.522 18.152-16.336 18.152-34.488 16.336-43.564-7.26-43.564-79.869-74.424-110.728-85.314-1.816-1.816-5.446-1.816-9.076-1.816zM0.319-64h675.255v54.456h-675.255zM684.65 282.703c-10.892 0-19.968 1.816-29.044 3.63v161.553c9.076 1.816 18.152 3.63 29.044 3.63 50.826 0 92.576-38.12 92.576-85.314 0-45.38-41.75-83.5-92.576-83.5zM602.966 179.237c0-43.564-36.304-79.869-79.869-79.869h-370.301c-43.564 0-79.869 36.304-79.869 79.869v364.856h530.039v-364.856zM684.65 504.159c-10.892 0-19.968 0-29.044-1.816v94.39h-635.321v-417.497c0-72.608 59.902-132.51 132.51-132.51h370.301c72.608 0 132.51 59.902 132.51 132.51v52.64c9.076-1.816 18.152-1.816 29.044-1.816 79.869 0 147.032 61.716 147.032 136.14 0 76.238-67.162 137.956-147.032 137.956z" />
<glyph unicode="&#xe922;" glyph-name="trash-fill" d="M136.533 891.733c-37.702 0-68.267-30.564-68.267-68.267v-68.267c0-37.702 30.564-68.267 68.267-68.267h34.133v-614.4c0-75.407 61.129-136.533 136.533-136.533h409.6c75.407 0 136.533 61.126 136.533 136.533v614.4h34.133c37.703 0 68.267 30.564 68.267 68.267v68.267c0 37.702-30.563 68.267-68.267 68.267h-238.933c0 37.702-30.563 68.267-68.267 68.267h-136.533c-37.702 0-68.267-30.564-68.267-68.267h-238.933zM341.333 618.667c18.851 0 34.133-15.282 34.133-34.133v-477.867c0-18.848-15.282-34.133-34.133-34.133s-34.133 15.285-34.133 34.133v477.867c0 18.851 15.282 34.133 34.133 34.133zM512 618.667c18.851 0 34.133-15.282 34.133-34.133v-477.867c0-18.848-15.282-34.133-34.133-34.133s-34.133 15.285-34.133 34.133v477.867c0 18.851 15.282 34.133 34.133 34.133zM716.8 584.533v-477.867c0-18.848-15.285-34.133-34.133-34.133s-34.133 15.285-34.133 34.133v477.867c0 18.851 15.285 34.133 34.133 34.133s34.133-15.282 34.133-34.133z" />
<glyph unicode="&#xe923;" glyph-name="university" horiz-adv-x="1301" d="M199.78 223.064h67.886v332.16h-67.886zM408.289 223.064h67.886v332.16h-67.886zM616.8 223.064h67.886v332.16h-67.886zM824.824 223.064h67.886v332.16h-67.886zM1033.333 223.064h67.886v332.16h-67.886zM1267.058-64h-1233.115c-18.912 0-33.944 15.032-33.944 33.944 0 18.427 15.032 33.944 33.944 33.944h1233.115c18.912 0 33.944-15.517 33.944-33.944 0-18.912-15.032-33.944-33.944-33.944zM249.241 698.756h802.519l-401.017 190.083-401.502-190.083zM1202.566 630.87h-1104.13c-16.002 0-29.579 11.153-32.974 26.185-3.394 15.517 4.365 31.518 18.427 38.307l552.307 261.364c9.213 4.365 19.881 4.365 29.094 0l551.822-261.364c14.547-6.789 22.306-22.79 18.427-38.307-3.394-15.032-16.971-26.185-32.974-26.185zM1204.505 79.532h-1108.009c-18.912 0-33.944 15.517-33.944 33.944 0 18.912 15.032 33.944 33.944 33.944h1108.009c18.912 0 33.944-15.032 33.944-33.944 0-18.427-15.032-33.944-33.944-33.944z" />
<glyph unicode="&#xe924;" glyph-name="user-link" horiz-adv-x="1019" d="M361.974 566.888c0 30.373 26.034 56.407 56.407 56.407h182.237c31.241 0 56.407-26.034 56.407-56.407v-65.085h56.407v65.085c0 61.614-51.2 111.946-112.814 111.946h-182.237c-61.614 0-112.814-50.332-112.814-111.946v-65.085h56.407v65.085zM56.51 7.159c0 31.241 25.166 56.407 56.407 56.407h181.369c31.241 0 56.407-25.166 56.407-56.407v-71.159h56.407v71.159c0 62.481-50.332 112.814-112.814 112.814h-181.369c-62.481 0-112.814-50.332-112.814-112.814v-71.159h56.407v71.159zM649.215 281.383c-1.736 7.81-6.075 13.885-12.149 17.356l-98.061 67.688c-0.868 0.868-1.736 2.603-1.736 3.471v113.681c0 15.62-13.017 27.769-27.769 27.769-15.62 0-28.637-12.149-28.637-27.769v-113.681c0-1.736 0-3.471-1.736-4.339l-96.325-66.82c-6.942-3.471-11.281-9.546-13.017-17.356-0.868-6.942 0-14.753 4.339-20.827 7.81-12.149 25.166-16.488 38.183-8.678l95.458 65.953h4.339l94.59-65.953c5.207-2.603 9.546-4.339 14.753-4.339 10.414 0 19.092 5.207 24.298 13.017 3.471 6.075 5.207 13.885 3.471 20.827zM668.306 7.159c0 31.241 25.166 56.407 56.407 56.407h181.369c31.241 0 56.407-25.166 56.407-56.407v-71.159h56.407v71.159c0 62.481-50.332 112.814-112.814 112.814h-181.369c-62.481 0-112.814-50.332-112.814-112.814v-71.159h56.407v71.159zM506.896 783.837c-32.976 0-59.878 26.902-59.878 59.878s26.902 59.878 59.878 59.878c32.976 0 59.878-26.902 59.878-59.878s-26.902-59.878-59.878-59.878zM506.896 960c-64.217 0-116.285-52.068-116.285-116.285s52.068-116.285 116.285-116.285c64.217 0 116.285 52.068 116.285 116.285s-52.068 116.285-116.285 116.285zM813.228 224.108c-32.976 0-59.878 26.902-59.878 59.878 0 33.844 26.902 60.746 59.878 60.746s59.878-26.902 59.878-60.746c0-32.976-26.902-59.878-59.878-59.878zM813.228 401.139c-64.217 0-116.285-52.068-116.285-117.153 0-64.217 52.068-116.285 116.285-116.285s116.285 52.068 116.285 116.285c0 65.085-52.068 117.153-116.285 117.153zM201.432 344.732c32.976 0 59.878-26.902 59.878-60.746 0-32.976-26.902-59.878-59.878-59.878s-59.878 26.902-59.878 59.878c0 33.844 26.902 60.746 59.878 60.746zM201.432 167.702c64.217 0 116.285 52.068 116.285 116.285 0 65.085-52.068 117.153-116.285 117.153s-116.285-52.068-116.285-117.153c0-64.217 52.068-116.285 116.285-116.285z" />
<glyph unicode="&#xe925;" glyph-name="vacation" horiz-adv-x="1102" d="M289.478 763.801c-31.58-47.37-57.897-126.32-52.634-236.851-42.107 10.527-105.267 10.527-178.954-26.317 26.317 115.794 110.531 210.534 231.587 263.167zM805.286 637.481c-89.477 10.527-147.373-21.053-184.217-47.37-31.58 115.794-89.477 178.954-136.847 215.797 136.847-5.263 263.167-68.424 321.063-168.427zM289.478 537.478c-5.263 168.427 68.424 231.587 100.004 252.641 31.58-5.263 126.32-47.37 178.954-205.27-63.16 10.527-178.954 21.053-278.958-47.37zM252.635 458.528c15.79-5.263 31.58-5.263 42.107 10.527v0 0c126.32 110.531 305.273 52.634 305.273 52.634v0c5.263-5.263 10.527-5.263 15.79-5.263s15.79 5.263 21.053 10.527c0 0 63.16 84.214 205.27 47.37 0 0 5.263 0 5.263 0 5.263-5.263 10.527-5.263 21.053 0s21.053 21.053 15.79 36.844c-68.424 178.954-278.958 278.958-500.017 242.114h-5.263c0 0-5.263-5.263-5.263-5.263-5.263 0-5.263 0-5.263 0-215.797-47.37-368.433-210.534-368.433-400.013 0-15.79 10.527-26.317 26.317-26.317v0c10.527 0 15.79 5.263 21.053 10.527 115.794 78.951 205.27 31.58 205.27 26.317zM342.112 890.121l57.897 5.263-10.527 42.107c0 15.79-15.79 21.053-31.58 21.053-15.79-5.263-21.053-15.79-21.053-31.58l5.263-36.844zM547.382 32.198h-57.897l15.79-73.687c0-10.527 15.79-21.053 26.317-21.053 0 0 5.263 0 5.263 0 15.79 0 26.317 15.79 21.053 31.58l-10.527 63.16zM410.534 479.581l52.634-300.010h57.897l-57.897 305.273c-15.79 0-36.844 0-52.634-5.263zM778.969 211.15h152.637l-36.844-73.687c0-5.263 0-5.263-5.263-5.263h-157.9l47.37 78.951zM1100.032 426.948c5.263 10.527 0 31.58-15.79 36.844-10.527 5.263-26.317 0-36.844-15.79l-89.477-184.217h-315.8c-15.79 0-26.317-10.527-26.317-26.317s10.527-26.317 26.317-26.317h73.687l-47.37-78.951h-505.28c-15.79 0-26.317-10.527-26.317-26.317s10.527-26.317 26.317-26.317h105.267l-57.897-100.004c-10.527-15.79-5.263-31.58 10.527-42.107 0 0 5.263 0 10.527 0 10.527 0 21.053 5.263 26.317 10.527l73.687 131.583h547.387l78.951-131.583c5.263-5.263 10.527-10.527 21.053-10.527 5.263 0 10.527 0 15.79 0 10.527 10.527 15.79 26.317 10.527 42.107l-68.424 110.531v5.263l163.163 331.59z" />
<glyph unicode="&#xe926;" glyph-name="wallet" horiz-adv-x="1038" d="M677.585 873.294l50.459-108.126h72.084l-93.709 194.626-418.086-194.626h151.376zM692.001 325.457c0-21.625-14.417-36.042-43.25-36.042-21.625 0-36.042 14.417-36.042 36.042s14.417 43.25 36.042 43.25c28.834 0 43.25-21.625 43.25-43.25zM973.127 210.124h-360.418c-36.042 0-57.667 21.625-57.667 57.667v115.334c0 28.834 21.625 57.667 57.667 57.667h360.418v-230.668zM901.044 58.748c0-36.042-28.834-64.875-57.667-64.875h-720.837c-36.042 0-57.667 28.834-57.667 64.875v533.42c0 28.834 21.625 57.667 57.667 57.667h720.837c28.834 0 57.667-28.834 57.667-57.667v-93.709h-288.335c-64.875 0-122.543-50.459-122.543-115.334v-115.334c0-64.875 57.667-122.543 122.543-122.543h288.335v-86.501zM1009.169 498.459h-43.25v93.709c0 64.875-57.667 122.543-122.543 122.543h-720.837c-64.875 0-122.543-57.667-122.543-122.543v-533.42c0-72.084 57.667-122.543 122.543-122.543h720.837c64.875 0 122.543 50.459 122.543 122.543v86.501h43.25c14.417 0 28.834 14.417 28.834 28.834v295.543c0 14.417-14.417 28.834-28.834 28.834z" />
<glyph unicode="&#xe927;" glyph-name="win" horiz-adv-x="889" d="M239.699 45.228l-20.48 102.4c0 6.827-6.827 13.653-13.653 20.48-6.827 0-6.827 0-13.653 0s-6.827 0-13.653 0l-95.573-47.787 95.573 204.8c-13.653 6.827-27.307 20.48-40.96 40.96l-136.533-286.72c0-6.827 0-20.48 6.827-27.307 6.827-13.653 20.48-13.653 34.133-6.827l129.707 54.613 34.133-136.533c6.827-13.653 13.653-20.48 27.307-20.48v-6.827c13.653 0 20.48 6.827 27.307 20.48l129.707 273.067c-20.48 0-34.133 6.827-54.613 6.827l-95.573-191.147zM881.406 86.188l-136.533 286.72c-13.653-20.48-27.307-34.133-40.96-47.787l95.573-204.8-95.573 47.787c-6.827 0-13.653 0-20.48 0-6.827-6.827-13.653-13.653-13.653-20.48l-27.307-102.4-95.573 197.973c-13.653-6.827-34.133-13.653-54.613-13.653l136.533-273.067c6.827-13.653 13.653-20.48 27.307-20.48v6.827c13.653 0 20.48 6.827 20.48 20.48l40.96 136.533 129.707-54.613c6.827 0 6.827-6.827 13.653-6.827v0c13.653 0 27.307 13.653 27.307 27.307 0 6.827-6.827 13.653-6.827 20.48zM444.499 727.894c-6.827 0-13.653 0-20.48-6.827v0l-47.787-40.96c-13.653-6.827-13.653-27.307-6.827-40.96 6.827-6.827 13.653-6.827 20.48-6.827s13.653 0 20.48 6.827l6.827 6.827v-109.227c0-13.653 13.653-27.307 27.307-27.307s27.307 13.653 27.307 27.307v163.84c0 13.653-13.653 27.307-27.307 27.307zM437.673 448.001c-95.573 0-170.667 75.093-170.667 170.667s75.093 170.667 170.667 170.667c95.573 0 170.667-75.093 170.667-170.667s-75.093-170.667-170.667-170.667zM437.673 843.948c-122.88 0-225.28-102.4-225.28-225.28s102.4-225.28 225.28-225.28c122.88 0 225.28 102.4 225.28 225.28s-102.4 225.28-225.28 225.28zM437.673 331.948c-157.013 0-286.72 129.707-286.72 286.72s129.707 286.72 286.72 286.72c157.013 0 286.72-129.707 286.72-286.72s-129.707-286.72-286.72-286.72zM437.673 960c-184.32 0-341.333-150.187-341.333-341.333 0-184.32 157.013-341.333 341.333-341.333 191.147 0 341.333 157.013 341.333 341.333 0 191.147-150.187 341.333-341.333 341.333z" />
<glyph unicode="&#xe928;" glyph-name="window" horiz-adv-x="1240" d="M852.503-63.665h-465.006c-18.98 0-34.797 15.817-34.797 34.797s15.817 33.215 34.797 33.215h465.006c18.98 0 33.215-14.235 33.215-33.215s-14.235-34.797-33.215-34.797zM1015.413 769.866v0h-161.329c-18.98 0-34.797-15.817-34.797-34.797s15.817-33.215 34.797-33.215h80.665l-161.329-162.911c-12.653-12.653-12.653-34.797 0-49.031 6.327-6.327 15.817-9.49 25.306-9.49 7.908 0 17.398 3.164 23.724 9.49l158.166 159.747v-71.174c0-18.98 15.817-33.215 34.797-33.215s34.797 14.235 34.797 33.215v156.584c0 18.98-15.817 34.797-34.797 34.797zM1170.415 224.196c0-37.96-30.051-69.593-68.012-69.593h-964.809c-37.96 0-68.012 31.633-68.012 69.593v597.866c0 37.96 30.051 68.012 68.012 68.012h964.809c37.96 0 68.012-30.051 68.012-68.012v-597.866zM1102.405 959.665h-964.809c-75.919 0-137.604-61.684-137.604-137.604v-597.866c0-75.919 61.684-137.604 137.604-137.604h964.809c75.919 0 137.604 61.684 137.604 137.604v597.866c0 75.919-61.684 137.604-137.604 137.604z" />
</font>
</defs>
</svg>
