<?xml version="1.0" encoding="UTF-8"?>
<!DOCTYPE svg PUBLIC "-//W3C//DTD SVG 1.1//EN" "http://www.w3.org/Graphics/SVG/1.1/DTD/svg11.dtd">
<!-- Creator: CorelDRAW X8 -->
<svg xmlns="http://www.w3.org/2000/svg" xml:space="preserve" width="52.1073mm" height="56.9282mm" version="1.1" style="shape-rendering:geometricPrecision; text-rendering:geometricPrecision; image-rendering:optimizeQuality; fill-rule:evenodd; clip-rule:evenodd"
viewBox="0 0 104 114"
 xmlns:xlink="http://www.w3.org/1999/xlink">
 <defs>
 </defs>
 <g id="Слой_x0020_1">
  <metadata id="CorelCorpID_0Corel-Layer"/>
  <path fill="#000" stroke="#000" stroke-width="4px" d="M81 17c-3,4 -12,6 -23,6 10,-15 16,-17 18,-17 4,0 6,6 6,6 0,2 0,4 -1,5zm-58 0c-1,-1 -1,-3 0,-5 0,0 1,-6 5,-6 2,0 8,2 18,17 -11,0 -20,-2 -23,-6zm65 -6c-1,-4 -5,-11 -12,-11 -7,0 -15,7 -24,21 -9,-14 -17,-21 -24,-21 -7,0 -11,7 -12,11 -1,4 0,7 2,10 6,8 22,9 31,9 1,0 3,0 3,0 1,0 2,0 3,0 9,0 25,-1 31,-9 2,-3 3,-6 2,-10z"/>
  <path fill="#000" stroke="#000" stroke-width="4px" d="M98 56l-36 0 0 -14 36 0 0 14zm-7 51l-29 0 0 -44 29 0 0 44zm-78 -44l29 0 0 44 -29 0 0 -44zm-7 -21l36 0 0 14 -36 0 0 -14zm50 65l-8 0 0 -65 8 0 0 65zm45 -72l-98 0c-2,0 -3,2 -3,4l0 20c0,2 1,4 3,4l4 0 0 48c0,1 1,3 3,3l84 0c2,0 4,-2 4,-3l0 -48 3 0c2,0 3,-2 3,-4l0 -20c0,-2 -1,-4 -3,-4z"/>
 </g>
</svg>
